<?xml version="1.0" encoding="UTF-8"?>
<svg width="150px" height="150px" viewBox="0 0 150 150" version="1.1" xmlns="http://www.w3.org/2000/svg" xmlns:xlink="http://www.w3.org/1999/xlink">
    <!-- Generator: Sketch 46.2 (44496) - http://www.bohemiancoding.com/sketch -->
    <title>icon-sg</title>
    <desc>Created with Sketch.</desc>
    <defs></defs>
    <g id="Nick-Nack-Attack" stroke="none" stroke-width="1" fill="none" fill-rule="evenodd">
        <g id="icon-sg" fill="#FFFFFF">
            <path d="M95.8795225,69.6316758 L90.8666453,79.9582926 L102.940539,79.9449559 L102.940539,83.733403 L113.870641,83.7355491 L113.870641,69.6331321 L95.8795225,69.6316758 Z M91.6981521,87.0160544 L91.6954018,87.0224928 C91.6025584,87.0224928 91.5115486,87.0194269 91.4197886,87.017664 C91.1845131,87.0192736 90.9691564,87.0207299 90.7808859,87.0224928 C89.12829,87.0377456 87.626877,86.5476626 86.3079006,85.8151442 C84.5418756,84.9182173 82.9667881,83.4985556 81.513297,81.4863335 C80.9529029,80.7531253 80.5709448,80.1506773 80.3887583,79.8493767 L80.4354301,79.8493767 C79.8273641,78.8410812 79.2386335,77.7196543 78.6645712,76.4736755 C75.627575,69.8840754 66.4935006,69.3792762 66.4935006,69.3792762 L50.0619677,69.3792762 C47.9156514,69.3792762 46.2018821,67.9058081 46.2018821,65.9250114 C46.2018821,63.9441381 47.9156514,62.3271862 50.0619677,62.3271862 L69.5058275,62.3271862 C75.18136,54.71902 80.7220445,52.0005695 80.7220445,52.0005695 L50.0883039,52.0005695 C41.755233,52.0005695 35,58.2348325 35,65.9250114 C35,73.6151137 41.7291468,79.9576794 50.0619677,79.9576794 L63.7547868,79.9576794 C66.017949,80.0629161 68.383789,80.3941859 69.0543618,81.9630032 C75.9606112,98.1205648 92.4975722,97.5784383 92.8520273,97.5883258 L113.870641,97.5883258 L113.870641,87.0224928 C113.870641,87.0224928 97.3733513,86.9856254 91.6981521,87.0160544 Z M68.9602683,68.2857489 C68.9602683,68.2857489 76.1339633,69.6599587 79.2615527,74.4192207 C79.2615527,74.4192207 79.888204,62.3271862 93.331246,62.3271862 L113.596612,62.3271862 L113.599112,52.0005695 L92.3098018,52.0005695 C92.3098018,52.0005695 74.6450518,51.6508278 68.9602683,68.2857489 Z M69.0628627,85.3347954 C68.0791727,87.2469928 65.603404,87.0097693 65.603404,87.0097693 L35,87.0097693 L35,97.5883258 L65.1925261,97.5883258 C73.1199696,97.5883258 76.3784065,93.3517219 76.3784065,93.3517219 C71.3150238,90.4792103 69.0628627,85.3347954 69.0628627,85.3347954 L69.0628627,85.3347954 Z" id="Fill-11"></path>
        </g>
    </g>
</svg>