<?xml version="1.0" encoding="UTF-8"?>
<svg width="150px" height="150px" viewBox="0 0 150 150" version="1.1" xmlns="http://www.w3.org/2000/svg" xmlns:xlink="http://www.w3.org/1999/xlink">
    <!-- Generator: Sketch 46.2 (44496) - http://www.bohemiancoding.com/sketch -->
    <title>icon-pq</title>
    <desc>Created with Sketch.</desc>
    <defs></defs>
    <g id="Nick-Nack-Attack" stroke="none" stroke-width="1" fill="none" fill-rule="evenodd">
        <g id="icon-pq" fill-rule="nonzero" fill="#FFFFFF">
            <path d="M82.7657737,65.5381525 C85.4736641,61.4130678 88.2288393,57.9208471 89.866785,55.9355957 C90.2492869,55.4722176 89.7409136,54.8125345 89.1909906,55.0500696 C87.3228655,55.8567831 85.59083,56.7381332 83.999028,57.64949 C87.0974339,52.8510536 90.1371146,49.0014721 91.8686951,46.9134149 C92.2454389,46.4580797 91.7455288,45.8179535 91.2021482,46.0486406 C87.6045581,47.5738592 84.4588759,49.3600979 81.7935982,51.1410099 L86.9396004,40.8093014 C87.1846776,40.318004 86.6356567,39.8010062 86.1593179,40.0771368 C83.7877381,41.4541429 81.6573175,42.8963296 79.7659739,44.3244146 C78.9353567,41.7918981 77.6225674,38.7137068 75.5491532,35.3089329 C75.2982947,34.8970224 74.7063618,34.8970224 74.4555032,35.3089329 C72.3812622,38.7147611 71.0685116,41.7940725 70.2379885,44.3274831 C68.3455231,42.8983955 66.2137496,41.4551291 63.8404712,40.0771368 C63.3641323,39.8010062 62.815712,40.318004 63.0601885,40.8093014 L67.298958,49.3195445 C65.3325502,48.1668825 63.1627285,47.0513544 60.79759,46.0486406 C60.2542092,45.8179535 59.7542992,46.4586838 60.1316468,46.9134149 C61.9775805,49.1393669 65.3100926,53.367187 68.6149825,58.6123335 C66.6005323,57.3621358 64.3283113,56.1382059 61.8084891,55.0500696 C61.2585659,54.8125345 60.7508037,55.4722176 61.1333057,55.9355957 C62.736233,57.879052 65.4103119,61.2662221 68.0626291,65.2782921 C67.3294691,64.8580232 66.5712267,64.4475882 65.7997118,64.0617792 C65.2624832,63.793457 64.7487658,64.4579029 65.1343477,64.9273155 C66.2678031,66.3084332 67.7761344,68.3326599 69.0766263,70.7092378 C59.7034798,73.2075006 57,82.0164229 57,92.5 C57,104.92644 60.7983728,115 75.0003019,115 C89.201627,115 93,104.92644 93,92.5 L93,92.5 C93,82.4186833 90.5000077,73.8859723 81.9734189,71.0244284 C84.5356328,66.3767858 88,63 88,63 C86.205207,63.7055673 84.4165365,64.6047463 82.7657737,65.5381525 Z" id="Shape"></path>
        </g>
    </g>
</svg>