<?xml version="1.0" encoding="UTF-8"?>
<svg width="150px" height="150px" viewBox="0 0 150 150" version="1.1" xmlns="http://www.w3.org/2000/svg" xmlns:xlink="http://www.w3.org/1999/xlink">
    <!-- Generator: Sketch 46.2 (44496) - http://www.bohemiancoding.com/sketch -->
    <title>tc_icon</title>
    <desc>Created with Sketch.</desc>
    <defs></defs>
    <g id="Nick-Nack-Attack" stroke="none" stroke-width="1" fill="none" fill-rule="evenodd">
        <g id="tc_icon" fill-rule="nonzero" fill="#FFFFFF">
            <path d="M82.8455677,94.7113132 C84.3308889,94.3868797 85.7817477,93.9772267 87.1940876,93.4871397 C87.3199339,93.9520781 87.5854443,94.3821548 87.9835787,94.706449 L95.8441343,101.123265 C95.0099776,103.616845 95.5038841,106.478377 97.4512337,108.464557 C97.9064542,108.928855 98.5027465,109.161004 99.0988835,109.161004 C99.6950204,109.161004 100.291468,108.928855 100.746533,108.464557 C101.656819,107.53612 101.656819,106.031827 100.746533,105.10339 C99.8362475,104.177172 99.8362475,102.668442 100.746533,101.742223 C101.656819,100.813786 103.131702,100.813786 104.041988,101.742223 C104.952274,102.67066 106.427157,102.67066 107.337443,101.742223 C108.247729,100.813786 108.247884,99.3093349 107.337443,98.380898 L107.337443,98.380898 C105.016595,96.0098103 101.502075,95.7866939 98.8127005,97.4591164 L91.6514339,91.6132566 C94.5593743,90.165713 97.2602506,88.3551929 99.7110801,86.2324026 L98.8840885,85.4004511 L104.336626,81.5628897 C105.597983,80.1153407 106.719172,78.5275506 107.747227,76.8933767 L105.289613,75.1251878 L110.316975,72.2238637 C111.017971,70.6827688 111.625366,69.1418295 112.13916,67.5543508 L109.437654,65.7343303 L113.400828,62.8848378 C113.774454,61.3905937 114.007911,59.8028036 114.148235,58.2153249 L111.260617,56.3534344 L114.428571,53.5458119 C114.428571,49.5300307 113.914622,45.6076398 112.839844,41.8720295 C112.653109,41.2182977 112.232761,40.6579561 111.625366,40.3777853 C111.211389,40.1868316 110.775635,40.1043335 110.332997,40.1598588 C109.952733,40.1123914 109.562389,40.1627112 109.172101,40.3310902 L90.9421849,47.6622256 C90.1072269,47.9890915 89.5042017,48.8762989 89.5042017,49.8103572 C89.5042017,50.2304577 89.643516,50.6975646 89.8754487,51.1176651 C90.0710418,51.432906 93.9333492,58.1327631 89.7265428,67.6253339 L84.981753,43.7733333 C84.051816,38.6865111 79.588862,35 74.4285714,35 C69.2682809,35 64.8053269,38.6865111 63.8753898,43.7733333 L59.2775985,67.5636256 C55.0423113,58.039913 58.9586531,51.385884 59.1554745,51.0708144 C59.5294118,50.4637777 59.6228571,49.7635064 59.4358106,49.1097746 C59.2021972,48.409192 58.6884034,47.8957012 58.0810084,47.6622256 L39.7189916,40.3310902 C39.0648739,40.0509194 38.4106006,40.0976145 37.8032056,40.3777853 C37.1958106,40.6579561 36.7754622,41.2182977 36.5887272,41.8720295 C35.5139496,45.6076398 35,49.5300307 35,53.5458119 L38.0031787,56.3254173 L35.2803361,58.2153249 C35.4206599,59.8028036 35.6542734,61.3905937 36.0277434,62.8848378 L40.1451025,65.8451534 L37.2894118,67.5543508 C37.8033613,69.1418295 38.4107563,70.6827688 39.1115966,72.2238637 L43.890549,75.2853521 L41.6813445,76.8933767 C42.7093994,78.5275506 43.830744,80.1153407 45.0919451,81.5628897 L50.7829244,84.9798836 L49.7178028,86.2324026 C52.069025,88.2689179 54.6503822,90.01803 57.4239222,91.434967 L50.0444424,97.458958 C47.3549124,95.7865354 43.8403924,96.0096519 41.5196998,98.3807395 C40.6094141,99.3091765 40.6094141,100.813469 41.5196998,101.741906 C42.4299855,102.670343 43.904869,102.670343 44.8151547,101.741906 C45.7254404,100.813469 47.2003239,100.813469 48.1106096,101.741906 C49.0208953,102.668125 49.0208953,104.176855 48.1106096,105.103073 C47.2003239,106.03151 47.2003239,107.535803 48.1106096,108.46424 C48.5658302,108.928538 49.1621224,109.160687 49.7582594,109.160687 C50.3543963,109.160687 50.950844,108.928538 51.4059092,108.46424 C53.3532587,106.47806 53.8470099,103.616687 53.0130086,101.122948 L60.8735642,94.7061321 C61.3247682,94.3386108 61.6056354,93.8352269 61.7059184,93.2992095 C63.2841423,93.8732383 64.9117765,94.3461921 66.5830423,94.7112536 L58.8202766,106.680589 C58.3432082,107.398304 58.2977657,108.32166 58.706748,109.08275 C59.1112325,109.84384 59.8972477,110.319249 60.7560019,110.319249 L69.0983405,110.319249 L73.0696714,114.31427 C73.5239411,114.771423 74.1191909,115 74.7144408,115 L74.7144408,115 C75.3096907,115 75.9049406,114.771423 76.3593653,114.31427 L80.3305412,110.319249 L88.6728797,110.319249 C89.5316339,110.319249 90.3176491,109.84384 90.7218234,109.08275 C91.1308057,108.32166 91.0853632,107.398304 90.6082948,106.680589 L82.8455677,94.7113132 Z" id="Oval"></path>
        </g>
    </g>
</svg>